<svg height="512" viewBox="0 0 512 512" width="512" xmlns="http://www.w3.org/2000/svg"><g id="flat"><path d="m311.992 328a8 8 0 0 1 -6.648-12.439 86.994 86.994 0 0 0 14.656-48.406v-75.155a8 8 0 0 1 16 0v75.155a102.942 102.942 0 0 1 -17.344 57.283 7.992 7.992 0 0 1 -6.664 3.562z" fill="#d3d3d3"/><path d="m160.251 328a7.972 7.972 0 0 1 -5.4-2.1l-96.251-88a8 8 0 1 1 10.8-11.8l96.253 88a8 8 0 0 1 -5.4 13.9z" fill="#703f16"/><path d="m463.992 392a7.957 7.957 0 0 1 -3.954-1.051l-112.253-64a8 8 0 0 1 7.924-13.9l112.253 64a8 8 0 0 1 -3.97 14.951z" fill="#703f16"/><rect fill="#ff2b63" height="168" rx="16.253" width="224" x="144" y="320"/><path d="m361.865 323.547c-37.965 81.753-120.789 138.453-216.865 138.453-.334 0-.666-.011-1-.013v9.76a16.253 16.253 0 0 0 16.253 16.253h191.494a16.253 16.253 0 0 0 16.253-16.253v-135.494a16.209 16.209 0 0 0 -6.135-12.706z" fill="#e5235f"/><path d="m215.994 304a7.967 7.967 0 0 1 -4.794-1.6 88.42 88.42 0 0 1 -35.2-70.4v-64a8 8 0 0 1 16 0v64a72.346 72.346 0 0 0 28.8 57.6 8 8 0 0 1 -4.806 14.4z" fill="#d3d3d3"/><path d="m144 376h224v56h-224z" fill="#8726e2"/><path d="m200 376v24a16 16 0 0 1 -16 16h-40v16h112v-56z" fill="#691daf"/><path d="m216 320h80v168h-80z" fill="#8726e2"/><path d="m280 320v136a16 16 0 0 1 -16 16h-48v16h80v-168z" fill="#691daf"/><path d="m72.006 192a7.986 7.986 0 0 1 -6.342-3.115c-8.594-11.147-11.764-21.522-9.423-30.835 1.894-7.537 6.759-12.145 10.659-15.85 3.163-3 4.961-4.8 5.125-6.844.2-2.52-1.78-5.931-5.584-9.605a8 8 0 0 1 11.118-11.508c7.52 7.266 11.025 14.8 10.416 22.395-.663 8.259-5.877 13.2-10.067 17.173-3.341 3.168-5.426 5.255-6.149 8.135-1.353 5.383 2.83 12.306 6.577 17.166a8 8 0 0 1 -6.33 12.888z" fill="#3bdabe"/><path d="m447.965 184a7.986 7.986 0 0 1 -6.342-3.115c-8.592-11.147-11.763-21.52-9.423-30.834 1.894-7.538 6.754-12.146 10.659-15.848 3.163-3 4.961-4.8 5.125-6.843.2-2.521-1.78-5.932-5.584-9.606a8 8 0 0 1 11.118-11.508c7.52 7.266 11.025 14.8 10.416 22.395-.663 8.259-5.877 13.2-10.067 17.174-3.341 3.167-5.426 5.255-6.149 8.134-1.352 5.383 2.83 12.307 6.577 17.166a8 8 0 0 1 -6.33 12.885z" fill="#3bdabe"/><g fill="#48bdff"><path d="m64 40a8 8 0 0 1 -8-8v-8a8 8 0 0 1 16 0v8a8 8 0 0 1 -8 8z"/><path d="m48 56h-8a8 8 0 0 1 0-16h8a8 8 0 0 1 0 16z"/><path d="m64 80a8 8 0 0 1 -8-8v-8a8 8 0 0 1 16 0v8a8 8 0 0 1 -8 8z"/><path d="m88 56h-8a8 8 0 0 1 0-16h8a8 8 0 0 1 0 16z"/><path d="m440 48a8 8 0 0 1 -8-8v-8a8 8 0 0 1 16 0v8a8 8 0 0 1 -8 8z"/><path d="m424 64h-8a8 8 0 0 1 0-16h8a8 8 0 0 1 0 16z"/><path d="m440 88a8 8 0 0 1 -8-8v-8a8 8 0 0 1 16 0v8a8 8 0 0 1 -8 8z"/><path d="m464 64h-8a8 8 0 0 1 0-16h8a8 8 0 0 1 0 16z"/><path d="m464 256a8 8 0 0 1 -8-8v-8a8 8 0 0 1 16 0v8a8 8 0 0 1 -8 8z"/><path d="m448 272h-8a8 8 0 0 1 0-16h8a8 8 0 0 1 0 16z"/><path d="m464 296a8 8 0 0 1 -8-8v-8a8 8 0 0 1 16 0v8a8 8 0 0 1 -8 8z"/><path d="m488 272h-8a8 8 0 0 1 0-16h8a8 8 0 0 1 0 16z"/><path d="m48 328a8 8 0 0 1 -8-8v-8a8 8 0 0 1 16 0v8a8 8 0 0 1 -8 8z"/><path d="m32 344h-8a8 8 0 0 1 0-16h8a8 8 0 0 1 0 16z"/><path d="m48 368a8 8 0 0 1 -8-8v-8a8 8 0 0 1 16 0v8a8 8 0 0 1 -8 8z"/><path d="m72 344h-8a8 8 0 0 1 0-16h8a8 8 0 0 1 0 16z"/></g><circle cx="272" cy="24" fill="#fdc47d" r="8"/><circle cx="256" cy="456" fill="#fdc47d" r="8"/><circle cx="256" cy="352" fill="#fdc47d" r="8"/><circle cx="416" cy="208" fill="#fdc47d" r="8"/><circle cx="104" cy="216" fill="#fdc47d" r="8"/><circle cx="32" cy="128" fill="#fdc47d" r="8"/><path d="m240 80a56 56 0 0 0 -112 0c0 30.928 25.072 88 56 88s56-57.072 56-88z" fill="#ff9f03"/><path d="m184 24a56.435 56.435 0 0 0 -8 .578 56 56 0 0 1 48 55.422c0 28.211-20.862 78.167-48 86.727a26.506 26.506 0 0 0 8 1.273c30.928 0 56-57.072 56-88a56 56 0 0 0 -56-56z" fill="#ff891f"/><path d="m384 104a56 56 0 0 0 -112 0c0 30.928 25.072 88 56 88s56-57.072 56-88z" fill="#ffcd01"/><path d="m328 48a56.435 56.435 0 0 0 -8 .578 56 56 0 0 1 48 55.422c0 28.211-20.862 78.167-48 86.727a26.506 26.506 0 0 0 8 1.273c30.928 0 56-57.072 56-88a56 56 0 0 0 -56-56z" fill="#ffba01"/><path d="m216 184a24.111 24.111 0 0 0 -19.2 9.6l-12.8 17.067-12.8-17.067a24 24 0 1 0 -19.2 38.4h10.805a52.724 52.724 0 0 0 -10.805 32 8 8 0 0 0 16 0 36.768 36.768 0 0 1 16.406-30.656l1.087-.725 4.024 1.006a37.907 37.907 0 0 1 26.893 24.9 8 8 0 1 0 15.18-5.058 54.023 54.023 0 0 0 -13.484-21.567 24 24 0 0 0 -2.106-47.9zm-72 24a8 8 0 0 1 14.4-4.8l9.6 12.8h-16a8.009 8.009 0 0 1 -8-8zm72 8h-16l9.6-12.8a8 8 0 1 1 6.4 12.8z" fill="#ff891f"/><path d="m384 232a24 24 0 0 0 -43.2-14.4l-12.8 17.067-12.8-17.067a24 24 0 1 0 -19.2 38.4h.625a38.76 38.76 0 0 0 -6.208 13.344l-2.179 8.717a8 8 0 1 0 15.524 3.878l2.177-8.715a22.693 22.693 0 0 1 21.218-17.188l7.619 1.9a22.709 22.709 0 0 1 17.224 22.064 8 8 0 0 0 16 0 38.665 38.665 0 0 0 -8.316-24h.316a24.028 24.028 0 0 0 24-24zm-30.4-4.8a8 8 0 1 1 6.4 12.8h-16zm-65.6 4.8a8 8 0 0 1 14.4-4.8l9.6 12.8h-16a8.009 8.009 0 0 1 -8-8z" fill="#ffba01"/></g></svg>